<?xml version="1.0" encoding="utf-8"?>
<!-- Generator: Adobe Illustrator 16.0.4, SVG Export Plug-In . SVG Version: 6.00 Build 0)  -->
<!DOCTYPE svg PUBLIC "-//W3C//DTD SVG 1.1//EN" "http://www.w3.org/Graphics/SVG/1.1/DTD/svg11.dtd">
<svg version="1.1" id="Layer_1" xmlns="http://www.w3.org/2000/svg" xmlns:xlink="http://www.w3.org/1999/xlink" x="0px" y="0px"
	 width="254.999px" height="44.121px" viewBox="0 0 254.999 44.121" enable-background="new 0 0 254.999 44.121"
	 xml:space="preserve">
<path fill="#FFFFFF" d="M230.402,42.41h-3.982v0.648h8.494V42.41h-4.025V6.016l19.774,37.515h0.354V1.71h3.982V1.062h-8.45V1.71
	h3.982v28.962l-15.573-29.61h-8.538V1.71h3.982V42.41 M203.611,22.061c0-3.009,0.043-12.269,2.256-17.224
	c1.372-3.068,3.849-4.188,6.68-4.188c2.832,0,5.309,1.12,6.68,4.188c2.213,4.955,2.258,14.215,2.258,17.224
	c0,3.008-0.045,12.445-2.258,17.223c-1.414,3.067-3.848,4.188-6.68,4.188c-2.831,0-5.264-1.121-6.68-4.188
	C203.654,34.506,203.611,25.069,203.611,22.061z M197.329,22.061c0,13.33,8.096,22.06,15.218,22.06
	c7.123,0,15.219-8.73,15.219-22.06C227.766,8.73,219.936,0,212.547,0C205.159,0,197.329,8.73,197.329,22.061z M189.791,42.41h-3.98
	v0.648h13.447V42.41h-3.98V1.71h3.98V1.062h-13.447V1.71h3.98V42.41z M168.088,42.41h-3.982v0.648h13.449V42.41h-3.981V1.71h0.53
	c6.018,0,9.203,6.253,10.088,13.508h0.354V1.062h-27.429v14.156h0.354c0.885-7.255,4.069-13.508,10.086-13.508h0.531V42.41z
	 M155.414,1.475h-0.354c-0.267,0.648-0.531,1.12-1.328,1.12c-0.354,0-0.93-0.059-2.389-0.826C149.043,0.59,147.893,0,145.945,0
	c-6.236,0-14.465,8.435-14.465,22.945c0,13.154,6.502,21.176,14.688,21.176c2.344,0,4.557-0.768,5.176-0.943
	c1.549-0.591,2.079-0.768,2.787-0.768c1.105,0,1.415,0.531,1.725,1.062h0.354V31.026h-0.354c-1.592,8.966-5.219,12.446-9.91,12.446
	c-3.627,0-5.705-1.77-6.768-5.133c-1.15-3.598-1.416-7.373-1.416-15.926c0-5.485,0.266-13.625,1.858-17.282
	c0.752-1.711,2.345-4.483,6.371-4.483c5.528,0,8.007,6.724,9.069,13.095h0.354V1.475z M108.229,42.41h-3.982v0.648h8.494V42.41
	h-4.026V6.016l19.775,37.515h0.354V1.71h3.982V1.062h-8.45V1.71h3.982v28.962l-15.573-29.61h-8.538V1.71h3.982V42.41z M94.303,42.41
	h-3.982v0.648h13.449V42.41h-3.981V1.71h3.981V1.062H90.321V1.71h3.982V42.41z M75.723,42.41h-3.982v0.648H85.19V42.41h-3.982V1.71
	h0.531c6.017,0,9.202,6.253,10.087,13.508h0.353V1.062H64.751v14.156h0.354C65.99,7.963,69.175,1.71,75.192,1.71h0.531V42.41z
	 M44.937,43.531h0.354c0.088-0.413,0.487-1.651,1.814-1.651c0.885,0,1.548,0.294,3.406,1.179c2.256,1.062,3.716,1.062,4.778,1.062
	c5.441,0,10.44-6.547,10.44-13.686c0-6.724-3.583-8.964-7.874-11.561c-5.795-3.598-8.892-5.544-8.892-11.148
	c0-5.309,3.495-7.078,5.795-7.078c4.822,0,6.592,7.314,7.521,11.325h0.354V0.236h-0.354c-0.089,0.531-0.354,1.651-1.46,1.651
	c-0.354,0-0.752-0.118-1.548-0.53C57.634,0.531,56.572,0,54.935,0c-5.087,0-8.98,6.311-8.98,13.095
	c0,6.724,2.787,8.729,7.918,11.974c6.371,4.069,8.627,5.544,8.627,10.381c0,5.427-3.539,8.022-7.211,8.022
	c-4.645,0-9.069-6.193-9.998-14.865h-0.354V43.531z M34.285,42.41h-3.982v0.648h13.449V42.41H39.77V1.71h3.982V1.062H30.303V1.71
	h3.982V42.41z M9.467,1.769c1.327-0.117,2.964-0.294,4.026-0.294c9.202,0,10.529,10.027,10.529,20.821
	c0,9.556-1.283,20.351-10.087,20.351c-1.548,0-2.743-0.118-4.468-0.295V1.769z M3.981,42.41H0v0.648h8.45
	c0.884,0,1.725,0.06,2.61,0.119c0.84,0.059,1.725,0.117,2.566,0.117c11.369,0,16.678-10.971,16.678-20.468
	c0-11.62-6.99-22.001-16.634-22.001c-0.929,0-1.858,0.059-2.787,0.118C9.954,1.003,9.025,1.062,8.096,1.062H0V1.71h3.981V42.41z"/>
</svg>
