<?xml version="1.0" encoding="utf-8"?>
<!-- Generator: Adobe Illustrator 16.0.4, SVG Export Plug-In . SVG Version: 6.00 Build 0)  -->
<!DOCTYPE svg PUBLIC "-//W3C//DTD SVG 1.1//EN" "http://www.w3.org/Graphics/SVG/1.1/DTD/svg11.dtd">
<svg version="1.1" id="Layer_1" xmlns="http://www.w3.org/2000/svg" xmlns:xlink="http://www.w3.org/1999/xlink" x="0px" y="0px"
	 width="175.748px" height="29.243px" viewBox="217.504 381.756 175.748 29.243"
	 enable-background="new 217.504 381.756 175.748 29.243" xml:space="preserve">
<g>
	<path fill="#FFFFFF" d="M217.678,410.768c-0.232,0-0.232-0.231,0-0.231c0.812-0.464,2.669-0.812,2.669-4.525v-19.612
		c0-2.205-1.857-3.598-2.553-3.713v-0.232h20.54l0.116,0.117v5.57c0,0.232-0.232,0.232-0.232,0.116
		c-0.58-1.741-2.785-3.598-5.222-3.598h-8.123v9.748h7.079c1.741,0,3.83-1.625,4.178-3.365h0.232v8.935h-0.232
		c-0.696-1.508-2.437-3.364-4.178-3.364h-7.079v9.284c0,3.248,1.393,3.713,3.133,4.642c0.116,0,0.116,0.231,0,0.231h-10.328V410.768
		z"/>
	<path fill="#FFFFFF" d="M279.529,397.074l7.311,13.692h6.847v-0.465c-1.16-0.23-1.857-0.464-3.597-3.249l-6.035-10.328
		L279.529,397.074L279.529,397.074z"/>
	<path fill="#FFFFFF" d="M280.341,397.771h-5.105v8.122c0,3.018,0.58,3.598,2.668,4.643v0.231h-9.979v-0.231
		c1.161-0.929,2.901-0.812,2.901-4.525v-19.728c-0.116-2.089-0.928-3.018-3.017-3.713v-0.117h14.041
		c3.713,0.117,4.874,0.812,6.73,2.321c2.553,2.089,3.481,8.355-1.508,11.373C284.171,397.771,282.198,397.654,280.341,397.771
		L280.341,397.771z M280.806,384.425h-5.57v11.256l0,0h4.99C287.768,395.682,287.188,384.425,280.806,384.425L280.806,384.425z"/>
	<path fill="#FFFFFF" d="M343.237,382.452h6.034l15.55,19.38v-14.506c0-3.017-0.696-3.597-2.669-4.642v-0.232h7.543v0.232
		c-1.16,0.812-2.669,0.812-2.669,4.526l0,0v23.557h-1.161l-17.986-22.165v16.826c0,3.25,0.929,4.062,3.018,5.106v0.231h-8.008
		v-0.231c1.161-0.929,2.555-1.974,2.555-5.688v-17.521h0.114c0-3.017-0.695-3.597-2.669-4.642v-0.232h6.383L343.237,382.452
		L343.237,382.452z"/>
	<path fill="#FFFFFF" d="M336.623,403.108v-15.782c0-3.017-0.696-3.597-2.669-4.642v-0.232h7.891v0.232
		c-1.16,0.812-2.669,0.812-2.669,4.526l0.116,14.853c0,3.946-1.857,8.937-9.399,8.937c-10.212,0-11.837-5.802-11.837-8.819v-14.854
		c0-3.017-0.695-3.597-2.669-4.642v-0.232h9.863v0.232c-1.16,0.812-2.553,0.812-2.553,4.526v15.782c0,2.553,1.855,5.918,7.194,5.918
		C334.766,408.91,336.623,406.125,336.623,403.108L336.623,403.108z"/>
	<path fill="#FFFFFF" d="M393.252,403.688l-1.276,7.079H370.74v-0.231c1.855-0.929,2.553-1.74,2.669-3.945v-0.116v-19.959v-0.231
		c-0.116-2.089-0.812-2.669-2.669-3.598v-0.232h20.888v5.803h-0.116c-0.464-1.857-3.943-3.946-5.918-3.946h-7.542v10.444l0,0h6.73
		c2.785-0.116,3.597-0.812,4.642-2.668h0.231v7.426h-0.231c-0.929-1.16-1.276-2.669-4.99-2.669h-0.464h-5.918v9.052
		c0.115,1.16,0.929,2.785,6.149,2.785c4.643,0,7.774-1.74,8.819-4.989h0.231V403.688z"/>
	<path fill="#FFFFFF" d="M301.461,402.876v-18.567c-6.266,0-6.847,0.696-9.167,4.526l-0.116-0.116l1.393-6.847
		c0.116,0.349,0.696,0.464,1.277,0.58h17.987c0.58-0.116,1.044-0.231,1.276-0.58l1.393,6.847l-0.116,0.116
		c-2.437-3.83-3.018-4.526-9.282-4.526v18.916v-0.349v2.901c0,3.713,1.855,3.829,3.017,4.758v0.231h-10.676v-0.231
		c1.161-0.929,3.017-1.045,3.017-4.758v-2.901H301.461z"/>
	<path fill="#FFFFFF" d="M238.334,396.378c0-8.123,6.846-14.622,15.317-14.622c8.471,0,15.318,6.499,15.318,14.622
		s-6.847,14.621-15.318,14.621C245.18,410.999,238.334,404.501,238.334,396.378L238.334,396.378z M253.651,409.143
		c5.57,0,9.98-5.803,9.98-12.765c0-6.963-4.41-12.649-9.98-12.649c-5.454,0-9.979,5.686-9.979,12.649
		C243.672,403.34,248.197,409.143,253.651,409.143L253.651,409.143z"/>
</g>
</svg>
