<?xml version="1.0" encoding="utf-8"?>
<!-- Generator: Adobe Illustrator 16.0.4, SVG Export Plug-In . SVG Version: 6.00 Build 0)  -->
<!DOCTYPE svg PUBLIC "-//W3C//DTD SVG 1.1//EN" "http://www.w3.org/Graphics/SVG/1.1/DTD/svg11.dtd">
<svg version="1.1" id="Layer_1" xmlns="http://www.w3.org/2000/svg" xmlns:xlink="http://www.w3.org/1999/xlink" x="0px" y="0px"
	 width="187.086px" height="55.868px" viewBox="0 0 187.086 55.868" enable-background="new 0 0 187.086 55.868"
	 xml:space="preserve">
<g>
	<path fill-rule="evenodd" clip-rule="evenodd" fill="#FFFFFF" d="M23.165,14.035v8.312h30.386v13.49H23.165v18.805H0V1.09h54.914
		v12.945H23.165L23.165,14.035z M29.705,26.026L29.705,26.026c-0.136,0.136-0.272,0.136-0.545,0.136h-3.134
		c-0.273,0-0.545,0-0.545-0.136h-0.136l-0.272,1.363h0.136c0.272-0.409,0.818-0.817,1.363-0.817h0.545v4.088
		c0,0.682-0.272,0.953-0.681,1.09v0.137h2.316v-0.137c-0.409-0.137-0.682-0.408-0.682-1.09v-4.088h0.682
		c0.545,0,0.817,0.409,1.226,0.817l0,0L29.705,26.026L29.705,26.026z M46.193,30.386c0,0.273-0.681,1.09-1.635,1.09h-0.545
		c-0.545,0-0.817-0.271-0.817-0.68v-1.771h1.362c0.681,0,0.818,0.408,0.954,0.545l0,0v-1.635l0,0
		c-0.136,0.408-0.273,0.68-0.954,0.68h-1.362v-2.043h1.362c0.818,0,1.227,0.409,1.363,0.954h0.136v-1.363h-4.36l0,0
		c0.409,0.136,0.681,0.409,0.681,1.09v3.543c0,0.68-0.272,0.816-0.681,0.953v0.137h4.36l0.272-1.5H46.193L46.193,30.386z
		 M41.424,26.162h-1.772l0,0c0.409,0.136,0.682,0.545,0.682,1.227v2.726L37.2,26.162h-1.363l0,0
		c0.272,0.136,0.545,0.273,0.545,0.954v3.27c0,0.682-0.136,1.227-0.545,1.363v0.137h1.771v-0.137
		c-0.409-0.137-0.682-0.682-0.682-1.363v-3.133l3.679,4.633h0.272v-4.497C40.878,26.707,41.015,26.298,41.424,26.162L41.424,26.162
		L41.424,26.162z M25.345,31.749c-0.272-0.137-0.545-0.273-0.817-0.818l-1.09-1.906c0.682-0.137,1.363-0.682,1.363-1.363
		c0-0.545-0.272-0.954-0.681-1.226c-0.273-0.137-0.682-0.273-1.363-0.273h-2.725l0,0c0.409,0.136,0.681,0.409,0.681,0.954v3.68
		c0,0.68-0.272,0.816-0.545,0.953v0.137h2.044v-0.137c-0.409-0.137-0.682-0.273-0.682-0.953v-1.5h0.954l1.499,2.59h1.362V31.749
		L25.345,31.749z M16.896,26.026c-1.908,0-2.998,1.363-2.998,2.999c0,1.635,1.227,2.861,2.998,2.861
		c1.635,0,3.134-0.955,3.134-2.861C20.031,27.252,18.668,26.026,16.896,26.026L16.896,26.026z M13.626,26.162h-4.36l0,0
		c0.409,0.136,0.681,0.273,0.681,1.09v3.543c0,0.68-0.272,0.816-0.681,0.953v0.137h2.316v-0.137
		c-0.272-0.137-0.681-0.273-0.681-0.953v-1.771h1.226c0.682,0,0.817,0.271,1.09,0.682l0,0v-1.771l0,0
		c-0.273,0.408-0.409,0.68-1.09,0.68h-1.226v-2.043H12.4c0.681,0,0.954,0.409,1.09,0.817h0.136V26.162L13.626,26.162z
		 M35.564,26.162h-1.771l0,0c0.409,0.136,0.681,0.545,0.681,1.227v2.589c0,0.953-0.409,1.363-1.499,1.363
		c-0.818,0-1.363-0.41-1.363-1.363v-2.725c0-0.681,0.409-0.954,0.682-1.09l0,0h-2.317l0,0c0.409,0.136,0.681,0.273,0.681,1.09v2.862
		c0,1.227,0.954,1.771,2.181,1.771c1.226,0,2.18-0.545,2.18-1.637v-2.86C35.02,26.707,35.292,26.298,35.564,26.162L35.564,26.162
		L35.564,26.162z M22.347,28.751h-0.818v-2.18h0.954c0.818,0,1.227,0.409,1.227,1.09C23.71,28.479,23.165,28.751,22.347,28.751
		L22.347,28.751z M16.896,31.612c-1.226,0-1.908-1.227-1.908-2.588c0-1.5,0.682-2.589,1.908-2.589c1.227,0,1.908,1.226,1.908,2.589
		C18.804,30.249,18.259,31.612,16.896,31.612L16.896,31.612z"/>
	<path fill-rule="evenodd" clip-rule="evenodd" fill="#FFFFFF" d="M87.616,55.868c-20.984,0-30.795-4.635-30.795-17.986v-0.547
		h22.483v1.09c0,3.953,2.862,6.27,9.947,6.27c5.995,0,9.13-1.09,9.13-3.816c0-2.861-4.225-3.406-11.855-4.904
		c-9.947-1.908-17.714-2.861-23.709-7.223c-3.815-2.998-5.314-7.358-5.314-11.446C57.502,6.268,68.54,0,89.115,0
		c20.167,0,29.978,4.77,29.978,15.943v1.362H97.291v-0.817c0-3.679-3.406-5.45-8.993-5.45c-5.178,0-7.903,1.226-7.903,3.406
		c0,2.998,4.087,3.407,15.261,5.45c7.358,1.499,14.171,2.453,19.349,5.723c3.952,2.726,6.404,6.269,6.404,12.265
		C121.409,50.009,109.827,55.868,87.616,55.868L87.616,55.868z"/>
	<path fill-rule="evenodd" clip-rule="evenodd" fill="#FFFFFF" d="M180.546,51.915c-3.134,1.771-7.358,2.727-13.763,2.727h-41.695
		V1.09h36.927c7.085,0,10.9,0.409,14.308,1.499c4.769,1.635,8.175,4.906,8.175,10.901c0,6.269-3.542,10.356-11.582,12.536
		c9.538,1.909,14.171,6.268,14.171,13.762C187.086,45.376,184.77,49.327,180.546,51.915L180.546,51.915z M155.202,12.672h-7.767
		v9.538h7.767c3.952,0,6.541-1.09,6.541-4.769C161.743,13.626,159.154,12.672,155.202,12.672L155.202,12.672z M157.518,32.976
		h-10.083v10.082h10.083c4.088,0,6.813-1.09,6.813-5.176C164.332,33.929,161.606,32.976,157.518,32.976L157.518,32.976z"/>
</g>
</svg>
