<?xml version="1.0" encoding="utf-8"?>
<!-- Generator: Adobe Illustrator 16.0.4, SVG Export Plug-In . SVG Version: 6.00 Build 0)  -->
<!DOCTYPE svg PUBLIC "-//W3C//DTD SVG 1.1//EN" "http://www.w3.org/Graphics/SVG/1.1/DTD/svg11.dtd">
<svg version="1.1" id="Layer_1" xmlns="http://www.w3.org/2000/svg" xmlns:xlink="http://www.w3.org/1999/xlink" x="0px" y="0px"
	 width="681.887px" height="86.64px" viewBox="0 0 681.887 86.64" enable-background="new 0 0 681.887 86.64" xml:space="preserve">
<g>
	<path fill="#FFFFFF" d="M603.904,62.554c-2.75,2.117-7.543,6.256-10.135,8.924l-9.357-8.404v-0.52
		c1.213-0.348,1.473-1.492,1.473-2.859V36.907c-2.168-1.559-6.584-5.408-9.012-7.623l-3.031,2.686v27.725l2.338,2.078
		c0.449,0.398,1.004,0.955,1.82,0.955c1.004,0,1.693-0.357,2.686-1.215l0.953,1.041c-2.555,1.846-7.277,5.805-10.223,8.924
		l-9.357-8.49v-0.434c0.953-0.348,1.471-0.969,1.471-2.426V36.994c-2.25-1.733-6.951-5.78-9.008-7.71l-3.033,2.6v27.811l2.166,1.906
		c0.754,0.664,1.287,1.127,2.08,1.127c0.951,0,1.559-0.174,2.598-1.215l0.953,1.041c-3.008,2.346-7.238,6.084-10.223,8.924
		l-9.357-8.318v-0.52c1.041-0.26,1.473-1.127,1.473-2.686V32.403l-2.426-1.906c-0.607-0.479-1.182-0.779-1.732-0.779
		c-0.758,0-1.596,0.387-2.6,1.299l-0.953-1.213c2.773-1.881,7.191-5.891,10.311-8.837l8.23,7.712l8.838-7.712
		c4.131,3.442,9.01,7.45,11.869,9.184l10.484-9.184c3.898,3.206,11.088,8.924,14.727,11.091v0.432
		c-1.039,0.348-1.732,1.135-1.732,2.686v24.432l1.906,1.82c0.656,0.627,1.42,1.301,2.252,1.301c1.041,0,1.84-0.551,2.686-1.301
		L603.904,62.554z"/>
	<path fill="#FFFFFF" d="M534.768,9.097l-3.467,3.119c-2.809,2.529-5.062,3.639-7.191,3.639c-1.652,0-3.23-0.773-4.938-2.252
		c-0.604-0.523-1.172-1.039-1.992-1.039c-0.939,0-1.723,0.42-2.514,1.213l-0.953-1.041l10.311-8.923l5.197,4.592
		c0.604,0.53,1.422,0.866,2.166,0.866c0.895,0,1.83-0.518,2.426-1.213L534.768,9.097z"/>
	<path fill="#FFFFFF" d="M536.846,62.554c-2.637,2.146-7.682,6.498-10.225,9.01l-9.441-8.404v-0.52
		c1.004-0.272,1.473-1.213,1.473-2.426V32.317l-2.166-1.734c-0.625-0.499-0.998-0.865-1.82-0.865c-0.936,0-1.895,0.42-2.686,1.213
		l-0.951-1.127c2.584-1.857,7.301-5.803,10.309-8.924l9.357,8.059v0.433c-0.799,0.306-1.732,0.952-1.732,2.513v27.811l2.424,2.166
		c0.6,0.533,1.336,0.867,2.08,0.867c0.895,0,1.646-0.434,2.426-1.215L536.846,62.554z"/>
	<path fill="#FFFFFF" d="M355.598,62.554c-2.537,1.91-7.004,5.789-10.223,9.01l-9.358-8.49v-0.52
		c0.821-0.277,1.387-1.229,1.387-2.686V15.509l-2.514-1.906c-0.548-0.416-1.085-0.779-1.56-0.779c-1.094,0-1.868,0.742-2.599,1.473
		l-1.04-1.127c3.119-2.338,7.625-6.238,10.396-9.098l9.359,8.059v0.346c-0.912,0.271-1.734,1.574-1.734,3.033v44.186l2.514,2.252
		c0.609,0.547,1.363,0.781,2.078,0.781c0.766,0,1.703-0.574,2.34-1.215L355.598,62.554z"/>
	<path fill="#FFFFFF" d="M254.143,62.554c-2.773,2.023-7.828,6.387-10.222,8.924l-9.357-8.318v-0.52
		c0.89-0.299,1.473-1.109,1.473-3.119V36.994c-2.32-1.772-6.725-5.54-9.011-7.71l-3.032,2.6v27.811l2.772,2.426
		c1.087,0.951,2.792,0.754,4.159-0.52l0.867,0.953c-2.867,2.117-7.493,6.215-10.224,8.924l-9.358-8.318v-0.52
		c0.958-0.391,1.473-1.233,1.473-2.6V32.317l-2.513-1.82c-0.572-0.414-0.949-0.779-1.473-0.779c-1.185,0-1.974,0.621-2.685,1.213
		l-1.04-1.127c2.472-1.751,6.635-5.291,10.31-8.837l8.231,7.712l8.837-7.712c3.097,2.677,10.853,8.608,14.728,11.177v0.434
		c-1.366,0.362-1.733,1.381-1.733,1.992v25.125l2.946,2.686c0.505,0.461,2.168,0.686,3.899-0.953L254.143,62.554z"/>
	<path fill="#FFFFFF" d="M673.648,59.001c-6.393,3.066-14.547,8.291-19.232,12.477c-2.699-2.189-6.238-4.42-10.396-4.42
		c-3.9,0-5.113,1.363-5.113,2.687c0,0.821,1.213,0.72,1.213,1.905c0,0.547-0.568,1.214-1.299,1.214c-0.912,0-1.82-0.956-1.82-2.599
		c0-2.555,1.52-5.949,6.24-11.178l8.057-8.924l-10.311-5.285v-0.52c0.83-0.236,1.127-0.925,1.127-1.905v-7.71
		c0-0.81-0.486-1.629-1.127-1.994v-0.605c6.654-3.291,14.318-7.564,18.715-11.264c1.168,1.297,4.418,3.119,7.709,3.119
		c2.773,0,3.119-0.85,3.119-1.819c0-0.548-0.434-0.693-0.434-1.126c0-0.732,0.408-1.039,0.953-1.039c0.82,0,1.473,0.613,1.473,2.165
		c0,4.104-3.896,9.185-10.309,9.185c-4.559,0-7.355-1.445-9.27-3.727l-0.434,0.26v11.35l6.324,3.033l2.686-2.687l12.129,6.151v0.52
		c-0.639,0.273-1.039,0.898-1.039,1.646v8.75c0,1.158,0.494,1.518,1.039,1.82V59.001z M662.213,63.507v-12.91l-5.979-2.772
		l-12.562,13.343l0.174,0.086c2.006-1.094,4.994-1.646,9.098-1.646c3.191,0,7.09,1.797,9.096,3.986L662.213,63.507z"/>
	<path fill="#FFFFFF" d="M638.127,37.341l-20.188,12.736v7.971c2.527,0.871,7.936,3.689,10.57,5.199l5.111-4.854
		c0.26-1.473,0.789-2.945,2.34-2.945c0.73,0,1.127,0.623,1.127,1.213c0,0.729-0.424,1.293-0.779,1.646l-13.17,13.082
		c-3.83-2.443-12.43-6.904-16.895-8.836v-0.521c0.865-0.347,1.299-1.251,1.299-2.253V34.827c0-1.09-0.555-2.092-1.387-2.25v-0.52
		c5.857-2.779,13.699-7.279,19.842-11.091C629.559,26.251,634.76,33.31,638.127,37.341z M628.336,41.239
		c-2.775-3.457-7.572-9.805-10.223-13.861l-0.174,0.086v20.447L628.336,41.239z"/>
	<path fill="#FFFFFF" d="M512.588,6.064c0,6.839-4.584,10.134-10.223,11.003v43.406c3.168-2.288,5.693-5.365,7.016-8.577
		c0.125-0.3,0.174-0.581,0.174-0.78c0-0.455-0.436-0.746-0.434-1.299c0.004-0.596,0.135-1.3,0.953-1.3
		c0.727,0,1.215,0.571,1.215,1.3c0,10.382-7.553,23.652-28.766,23.652c-15.172,0-27.639-11.445-27.639-27.379
		c0-21.281,17.684-28.791,29.631-31.449c-4-0.67-9.596-1.646-14.814-1.646c-9.977,0-13.125,4.726-13.949,8.144l-1.039-0.52
		c0.182-4.816,4.424-18.021,17.414-18.021c12.723,0,20.852,5.285,30.758,5.285c6.543,0,7.719-2.945,8.316-5.978l1.127,0.433
		C512.414,2.737,512.588,5.237,512.588,6.064z M500.717,61.601V17.241c-0.508,0.035-1.039,0.087-1.559,0.087
		c-2.092,0-4.049-0.429-6.498-0.866c-3.139,1.51-5.979,4.805-5.979,9.877c0,9.551,5.373,11.797,5.373,21.485
		c0,7.618-6.398,13.211-11.611,15.769c2.82,1.055,5.957,1.473,9.186,1.473C493.279,65.065,498.279,63.284,500.717,61.601z
		 M490.234,15.942l-1.732-0.348c-10.543,1.959-22.699,11.287-22.699,26.686c0,10.134,5.381,17.117,12.994,20.619
		c2.258-1.586,4.766-4.467,4.766-9.53c0-9.005-5.805-13.904-5.805-22.093C477.758,25.138,481.764,19.677,490.234,15.942z"/>
	<path fill="#FFFFFF" d="M423.695,59.001c-6.393,3.066-14.549,8.291-19.234,12.477c-2.697-2.189-6.236-4.42-10.396-4.42
		c-3.898,0-5.111,1.363-5.111,2.687c0,0.821,1.213,0.72,1.213,1.905c0,0.547-0.57,1.214-1.299,1.214c-0.912,0-1.82-0.956-1.82-2.599
		c0-2.555,1.518-5.949,6.238-11.178l8.057-8.924l-10.309-5.285v-0.605c0.83-0.236,1.125-0.839,1.125-1.819v-7.71
		c0-1.045-0.346-1.646-1.125-1.994v-0.605c6.654-3.291,14.318-7.564,18.713-11.264c1.17,1.297,4.42,3.119,7.711,3.119
		c2.773,0,3.119-0.85,3.119-1.819c0-0.548-0.434-0.771-0.434-1.126c0-0.732,0.408-1.039,0.953-1.039
		c0.822,0,1.475,0.613,1.475,2.165c0,4.104-3.986,9.185-10.311,9.185c-4.559,0-7.355-1.445-9.271-3.727l-0.434,0.26v11.35
		l6.324,3.033l2.688-2.687l12.129,6.151v0.605c-0.641,0.273-1.039,0.898-1.039,1.646v8.578c0,1.158,0.434,1.646,1.039,1.818V59.001z
		 M412.26,63.507v-12.91l-5.979-2.772l-12.562,13.343l0.174,0.086c2.006-1.094,4.994-1.646,9.096-1.646
		c3.193,0,7.092,1.797,9.098,3.986L412.26,63.507z"/>
	<path fill="#FFFFFF" d="M388.779,37.341l-20.186,12.736v7.971c2.527,0.871,7.936,3.689,10.57,5.199l5.111-4.854
		c0.346-1.473,0.787-2.945,2.338-2.945c0.73,0,1.127,0.623,1.127,1.213c0,0.729-0.336,1.293-0.693,1.646L373.793,71.39
		c-3.83-2.443-12.432-6.904-16.896-8.836v-0.521c0.732-0.274,1.301-1.251,1.301-2.253V34.827c0-1.09-0.555-2.092-1.387-2.25v-0.52
		c5.855-2.779,13.697-7.279,19.84-11.091C380.213,26.251,385.412,33.31,388.779,37.341z M378.99,41.239
		c-2.777-3.457-7.572-9.805-10.223-13.861l-0.174,0.086v20.447L378.99,41.239z"/>
	<path fill="#FFFFFF" d="M331.511,37.341l-20.272,12.736v7.971c2.528,0.871,7.935,3.689,10.569,5.199l5.111-4.854
		c0.348-1.559,0.779-2.945,2.427-2.945c0.729,0,1.039,0.623,1.039,1.213c0,0.729-0.337,1.293-0.693,1.646l-13.255,13.17
		c-3.829-2.445-12.43-6.992-16.895-8.924v-0.521c0.73-0.274,1.3-1.251,1.3-2.253V34.827c0-1.09-0.555-2.092-1.387-2.25v-0.52
		c5.857-2.779,13.785-7.279,19.927-11.091C322.945,26.251,328.143,33.31,331.511,37.341z M321.634,41.239
		c-2.775-3.457-7.572-9.805-10.223-13.861l-0.173,0.086v20.447L321.634,41.239z"/>
	<path fill="#FFFFFF" d="M295.817,67.839c-0.274,10.852-5.291,18.801-15.422,18.801c-7.932,0-12.896-4.16-20.101-4.16
		c-4.194,0-6.525,1.4-7.711,2.859l-1.126-0.952c1.55-7.479,6.575-12.216,13.689-12.216c7.842,0,12.754,5.023,21.053,5.023
		c3.83,0,6.097-1.85,7.191-4.678l-0.087-0.174c-1.223,0.429-2.496,0.607-3.725,0.607c-4.274,0-8.146-2.91-8.925-7.798
		c-2.037,1.423-6.137,4.569-8.145,6.325c-5.01-3.229-12.708-7.35-16.635-9.098v-0.52c0.819-0.275,1.386-1.08,1.386-2.08V35.001
		c0-1.455-0.558-2.24-1.56-2.424v-0.434c7.004-2.692,14.767-7.371,19.84-11.264c4.37,3.46,11.611,8.494,16.289,11.178v0.432
		c-0.638,0.273-1.213,0.967-1.213,2.427V62.12c0,3.393,0.841,5.197,3.292,5.197c0.39,0,0.825,0.027,1.3-0.086L295.817,67.839z
		 M280.309,63.42V36.907c-2.717-1.795-9.051-6.365-12.304-8.922l-0.433,0.346v29.283c3.467,1.688,9.555,5.367,11.437,6.758
		L280.309,63.42z"/>
	<path fill="#FFFFFF" d="M209.958,63.333c-2.916,5.01-5.937,8.751-10.311,8.751c-3.46,0-5.906-1.981-7.19-5.718l-5.719-16.635
		h-22.179l-3.206,9.27c3.552,0.271,6.805,2.426,7.711,2.426c1.002,0,1.852-0.777,2.946-2.6l1.385,0.867l-7.364,11.783
		c-2.005-1.732-5.163-3.553-9.357-3.553c-5.745,0-9.312,1.545-11.956,3.553l-0.954-0.348c1.276-6.193,6.397-11.576,15.336-12.215
		l15.421-45.227l-0.521-1.559c-1.064-3.197-3.177-4.939-5.457-4.939c-2.371,0-3.6,1.086-4.419,1.906l-0.693-0.605
		c0.637-3.557,3.914-7.451,8.923-7.451c4.189,0,7.029,2.046,8.577,4.505h0.173c0.728-1.912,2.094-3.458,3.552-3.639l0.26,0.433
		c-0.544,0.424-1.213,2.133-1.213,3.986c0,0.934,0.213,1.863,0.52,2.771l18.194,53.803c0.431,1.273,1.335,1.906,2.34,1.906
		c1.461,0,2.366-0.867,3.552-2.6L209.958,63.333z M184.572,43.146l-8.837-25.99h-0.174l-8.836,25.99H184.572z"/>
	<path fill="#FFFFFF" d="M123.838,59.001c-6.393,3.066-14.548,8.291-19.234,12.477c-2.698-2.189-6.238-4.42-10.396-4.42
		c-3.898,0-5.112,1.363-5.112,2.687c0,0.821,1.214,0.72,1.214,1.905c0,0.547-0.571,1.214-1.3,1.214c-0.913,0-1.82-0.956-1.82-2.599
		c0-2.555,1.518-5.949,6.239-11.178l8.057-8.924l-10.31-5.285v-0.605c0.831-0.236,1.126-0.839,1.126-1.819v-7.71
		c0-0.81-0.486-1.629-1.126-1.994v-0.605c6.655-3.291,14.318-7.564,18.713-11.264c1.17,1.297,4.418,3.119,7.711,3.119
		c2.773,0,3.119-0.85,3.119-1.819c0-0.548-0.434-0.771-0.434-1.126c0-0.732,0.407-1.039,0.954-1.039c0.82,0,1.473,0.613,1.473,2.165
		c0,4.104-3.378,9.185-10.31,9.185c-4.558,0-7.354-1.445-9.27-3.727l-0.434,0.26v11.35l6.324,3.033l2.686-2.687l12.129,6.151v0.693
		c-0.641,0.273-1.04,0.896-1.04,1.646v8.49c0,1.158,0.495,1.517,1.04,1.818V59.001z M112.402,63.507v-12.91l-5.978-2.772
		L93.862,61.167l0.172,0.086c2.006-1.094,4.995-1.646,9.098-1.646c3.192,0,7.091,1.797,9.096,3.986L112.402,63.507z"/>
	<path fill="#FFFFFF" d="M85.509,60.214c-5.718,2.34-15.161,7.711-19.667,11.264c-5.112-3.379-11.87-8.49-16.548-11.177v-0.606
		c1.04-0.348,1.3-1.301,1.3-2.6v-21.4c0-1.986-0.374-2.795-1.473-3.031v-0.52c6.758-2.686,13.602-6.498,19.667-11.264
		c4.245,3.379,11.956,8.404,16.375,11.178v0.52c-0.913,0.364-1.126,1.156-1.126,2.25v22.614c0,1.212,0.743,1.979,1.473,2.253V60.214
		z M73.64,64.286V36.302c-3.639-2.166-9.184-5.979-12.129-8.316l-0.52,0.346v27.811c3.898,2.166,9.01,5.892,12.302,8.404
		L73.64,64.286z"/>
	<path fill="#FFFFFF" d="M47.734,55.534l-8.317,15.943c-3.192-2.738-7.917-4.68-14.119-4.68c-9.302,0-20.889,2.409-24.172,4.506
		L0,70.091c3.648-3.191,7.451-11.475,7.451-21.313c0-10.487-5.978-15.435-5.978-25.817c0-10.672,4.765-16.59,13.602-21.054
		l1.04,0.953c-3.163,2.633-4.801,5.792-5.112,9.705L26.252,0c2.826,2.736,7.332,5.805,11.433,5.805c3.101,0,4.678-0.634,4.678-1.993
		c0-0.73-0.605-0.949-0.605-1.386c0-0.729,0.526-1.04,1.125-1.04c0.822,0,1.386,0.979,1.386,2.08
		c0,5.747-5.894,10.571-11.953,10.571c-2.011,0-3.707-0.172-5.198-0.607v43.492c0.934-0.092,1.707-0.172,2.339-0.172
		c5.747,0,10.845,2.426,12.213,2.426c2.005,0,2.728-1.432,4.332-4.506L47.734,55.534z M25.472,57.095V12.735
		c-2.287-1.018-4.158-2.559-6.065-4.764l-8.491,6.844c0,12.768,6.671,18.542,6.671,28.85c0,7.21-5.089,14.711-9.01,18.541
		l0.346,0.088C14.109,59.331,20.828,57.739,25.472,57.095z"/>
	<path fill="#FFFFFF" d="M681.887,69.312"/>
</g>
</svg>
