<?xml version="1.0" encoding="utf-8"?>
<!-- Generator: Adobe Illustrator 16.0.4, SVG Export Plug-In . SVG Version: 6.00 Build 0)  -->
<!DOCTYPE svg PUBLIC "-//W3C//DTD SVG 1.1//EN" "http://www.w3.org/Graphics/SVG/1.1/DTD/svg11.dtd">
<svg version="1.1" id="Layer_1" xmlns="http://www.w3.org/2000/svg" xmlns:xlink="http://www.w3.org/1999/xlink" x="0px" y="0px"
	 width="175.748px" height="38.174px" viewBox="0 0 175.748 38.174" enable-background="new 0 0 175.748 38.174"
	 xml:space="preserve">
<g>
	<path fill-rule="evenodd" clip-rule="evenodd" fill="#FFFFFF" d="M155.606,33.695v-0.862h-0.267v-0.12h0.683v0.12h-0.268v0.862
		H155.606L155.606,33.695z M156.682,33.501l0.276-0.788h0.221v0.982h-0.148v-0.857h-0.005l-0.3,0.857h-0.108l-0.311-0.857h-0.005
		v0.857h-0.119v-0.982h0.215L156.682,33.501L156.682,33.501z"/>
	<polygon fill-rule="evenodd" clip-rule="evenodd" fill="#FFFFFF" points="35.355,35.49 35.008,35.49 35.008,33.066 34.991,33.066 
		34.113,35.49 33.879,35.49 32.98,33.066 32.964,33.066 32.964,35.49 32.672,35.49 32.672,32.715 33.19,32.715 34.029,34.936 
		34.846,32.715 35.355,32.715 35.355,35.49 	"/>
	<path fill-rule="evenodd" clip-rule="evenodd" fill="#FFFFFF" d="M39.342,35.49h-0.356l-0.28-0.81h-1.027l-0.247,0.81H37.14
		l0.899-2.775h0.401L39.342,35.49L39.342,35.49z M38.205,33.086l-0.429,1.332h0.854L38.205,33.086L38.205,33.086z"/>
	<path fill-rule="evenodd" clip-rule="evenodd" fill="#FFFFFF" d="M43.179,35.511h-0.214l-0.094-0.345
		c-0.173,0.255-0.465,0.364-0.769,0.364c-0.372,0-0.644-0.133-0.866-0.428c-0.21-0.288-0.292-0.62-0.292-0.973
		c0-0.728,0.381-1.456,1.203-1.456c0.53,0,0.874,0.299,1.003,0.798l-0.328,0.081c-0.069-0.35-0.336-0.589-0.7-0.589
		c-0.627,0-0.801,0.64-0.801,1.15c0,0.239,0.044,0.522,0.158,0.736c0.126,0.234,0.372,0.396,0.646,0.396
		c0.43,0,0.697-0.292,0.697-0.712v-0.153h-0.691V34.09h1.048V35.511L43.179,35.511z"/>
	<path fill-rule="evenodd" clip-rule="evenodd" fill="#FFFFFF" d="M47.093,35.49h-0.356l-0.28-0.81h-1.028l-0.247,0.81h-0.291
		l0.898-2.775h0.399L47.093,35.49L47.093,35.49z M45.956,33.086l-0.429,1.332h0.854L45.956,33.086L45.956,33.086z"/>
	<polygon fill-rule="evenodd" clip-rule="evenodd" fill="#FFFFFF" points="50.634,35.49 48.675,35.49 48.675,35.191 50.184,33.002 
		48.744,33.002 48.744,32.715 50.589,32.715 50.589,32.944 49.063,35.191 50.634,35.191 50.634,35.49 	"/>
	<polygon fill-rule="evenodd" clip-rule="evenodd" fill="#FFFFFF" points="52.536,35.49 52.536,32.715 52.884,32.715 52.884,35.49 
		52.536,35.49 	"/>
	<polygon fill-rule="evenodd" clip-rule="evenodd" fill="#FFFFFF" points="57.032,35.49 56.692,35.49 55.28,33.07 55.28,35.49 
		54.988,35.49 54.988,32.715 55.425,32.715 56.741,34.976 56.741,32.715 57.032,32.715 57.032,35.49 	"/>
	<polygon fill-rule="evenodd" clip-rule="evenodd" fill="#FFFFFF" points="60.922,35.49 59.125,35.49 59.125,32.715 60.881,32.715 
		60.881,33.013 59.472,33.013 59.472,33.896 60.59,33.896 60.59,34.176 59.472,34.176 59.472,35.191 60.922,35.191 60.922,35.49 	
		"/>
	<polygon fill-rule="evenodd" clip-rule="evenodd" fill="#FFFFFF" points="65.466,35.49 65.466,32.715 67.166,32.715 67.166,33.013 
		65.814,33.013 65.814,33.896 66.936,33.896 66.936,34.176 65.814,34.176 65.814,35.49 65.466,35.49 	"/>
	<path fill-rule="evenodd" clip-rule="evenodd" fill="#FFFFFF" d="M68.708,34.123c0-0.692,0.34-1.449,1.142-1.449
		c0.781,0,1.141,0.712,1.141,1.396c0,0.68-0.348,1.461-1.137,1.461C69.056,35.53,68.708,34.817,68.708,34.123L68.708,34.123z
		 M70.626,34.09c0-0.247-0.041-0.534-0.166-0.757c-0.126-0.219-0.34-0.372-0.599-0.372c-0.619,0-0.79,0.668-0.79,1.167
		c0,0.476,0.194,1.119,0.781,1.119C70.448,35.247,70.626,34.567,70.626,34.09L70.626,34.09z"/>
	<path fill-rule="evenodd" clip-rule="evenodd" fill="#FFFFFF" d="M74.58,35.49l-0.514-1.202h-0.769v1.202h-0.348v-2.775h1.04
		c0.227,0,0.445,0.028,0.631,0.168c0.186,0.143,0.295,0.374,0.295,0.608c0,0.328-0.194,0.623-0.518,0.713l0.546,1.286H74.58
		L74.58,35.49z M73.949,34.006c0.186,0,0.34-0.014,0.478-0.155c0.097-0.097,0.142-0.229,0.142-0.364
		c0-0.161-0.061-0.295-0.195-0.384c-0.122-0.085-0.239-0.09-0.384-0.09h-0.692v0.993H73.949L73.949,34.006z"/>
	<polygon fill-rule="evenodd" clip-rule="evenodd" fill="#FFFFFF" points="80.404,35.49 80.056,35.49 80.056,33.018 79.266,33.018 
		79.266,32.715 81.193,32.715 81.193,33.018 80.404,33.018 80.404,35.49 	"/>
	<polygon fill-rule="evenodd" clip-rule="evenodd" fill="#FFFFFF" points="84.657,35.49 84.657,34.171 83.37,34.171 83.37,35.49 
		83.022,35.49 83.022,32.715 83.37,32.715 83.37,33.867 84.657,33.867 84.657,32.715 85.005,32.715 85.005,35.49 84.657,35.49 	"/>
	<polygon fill-rule="evenodd" clip-rule="evenodd" fill="#FFFFFF" points="88.928,35.49 87.13,35.49 87.13,32.715 88.887,32.715 
		88.887,33.013 87.479,33.013 87.479,33.896 88.595,33.896 88.595,34.176 87.479,34.176 87.479,35.191 88.928,35.191 88.928,35.49 	
		"/>
	<polygon fill-rule="evenodd" clip-rule="evenodd" fill="#FFFFFF" points="95.119,35.49 93.479,35.49 93.479,32.715 93.828,32.715 
		93.828,35.182 95.119,35.182 95.119,35.49 	"/>
	<path fill-rule="evenodd" clip-rule="evenodd" fill="#FFFFFF" d="M98.854,34.471c0,0.275-0.016,0.53-0.203,0.752
		c-0.186,0.224-0.464,0.308-0.749,0.308c-0.27,0-0.558-0.057-0.744-0.267c-0.202-0.227-0.218-0.507-0.218-0.793v-1.756h0.348v1.756
		c0,0.166,0.004,0.393,0.104,0.538c0.114,0.166,0.349,0.214,0.538,0.214c0.178,0,0.382-0.057,0.499-0.198
		c0.133-0.158,0.133-0.364,0.133-0.554v-1.756h0.292V34.471L98.854,34.471z"/>
	<polygon fill-rule="evenodd" clip-rule="evenodd" fill="#FFFFFF" points="101.905,33.985 102.793,35.49 102.399,35.49 
		101.699,34.309 100.971,35.49 100.646,35.49 101.538,34.054 100.744,32.715 101.133,32.715 101.744,33.741 102.362,32.715 
		102.684,32.715 101.905,33.985 	"/>
	<path fill-rule="evenodd" clip-rule="evenodd" fill="#FFFFFF" d="M106.503,34.471c0,0.275-0.016,0.53-0.202,0.752
		c-0.186,0.224-0.465,0.308-0.748,0.308c-0.271,0-0.56-0.057-0.745-0.267c-0.202-0.227-0.219-0.507-0.219-0.793v-1.756h0.348v1.756
		c0,0.166,0.005,0.393,0.104,0.538c0.115,0.166,0.35,0.214,0.54,0.214c0.178,0,0.38-0.057,0.497-0.198
		c0.134-0.158,0.134-0.364,0.134-0.554v-1.756h0.291V34.471L106.503,34.471z"/>
	<path fill-rule="evenodd" clip-rule="evenodd" fill="#FFFFFF" d="M110.234,35.49l-0.514-1.202h-0.77v1.202h-0.348v-2.775h1.041
		c0.227,0,0.445,0.028,0.631,0.168c0.187,0.143,0.295,0.374,0.295,0.608c0,0.328-0.195,0.623-0.519,0.713l0.548,1.286H110.234
		L110.234,35.49z M109.604,34.006c0.186,0,0.339-0.014,0.477-0.155c0.099-0.097,0.143-0.229,0.143-0.364
		c0-0.161-0.062-0.295-0.194-0.384c-0.121-0.085-0.239-0.09-0.384-0.09h-0.693v0.993H109.604L109.604,34.006z"/>
	<polygon fill-rule="evenodd" clip-rule="evenodd" fill="#FFFFFF" points="113.448,34.321 113.448,35.49 113.101,35.49 
		113.101,34.321 112.174,32.715 112.579,32.715 113.315,33.992 114.061,32.715 114.376,32.715 113.448,34.321 	"/>
	<polygon fill-rule="evenodd" clip-rule="evenodd" fill="#FFFFFF" points="126.908,35.49 125.271,35.49 125.271,32.715 
		125.617,32.715 125.617,35.182 126.908,35.182 126.908,35.49 	"/>
	<polygon fill-rule="evenodd" clip-rule="evenodd" fill="#FFFFFF" points="128.742,35.49 128.742,32.715 129.09,32.715 
		129.09,35.49 128.742,35.49 	"/>
	<polygon fill-rule="evenodd" clip-rule="evenodd" fill="#FFFFFF" points="131.211,35.49 131.211,32.715 132.911,32.715 
		132.911,33.013 131.56,33.013 131.56,33.896 132.68,33.896 132.68,34.176 131.56,34.176 131.56,35.49 131.211,35.49 	"/>
	<polygon fill-rule="evenodd" clip-rule="evenodd" fill="#FFFFFF" points="136.399,35.49 134.603,35.49 134.603,32.715 
		136.359,32.715 136.359,33.013 134.951,33.013 134.951,33.896 136.068,33.896 136.068,34.176 134.951,34.176 134.951,35.191 
		136.399,35.191 136.399,35.49 	"/>
	<path fill-rule="evenodd" clip-rule="evenodd" fill="#FFFFFF" d="M138.447,34.672c0.113,0.386,0.433,0.563,0.821,0.563
		c0.166,0,0.369-0.036,0.497-0.138c0.106-0.081,0.171-0.222,0.171-0.356c0-0.279-0.23-0.392-0.474-0.453l-0.461-0.112
		c-0.187-0.046-0.356-0.089-0.502-0.224c-0.146-0.129-0.227-0.319-0.227-0.515c0-0.534,0.461-0.764,0.942-0.764
		c0.466,0,0.838,0.229,0.987,0.68l-0.315,0.084c-0.061-0.303-0.385-0.488-0.68-0.488c-0.263,0-0.596,0.137-0.596,0.44
		c0,0.312,0.244,0.382,0.504,0.44l0.415,0.102c0.183,0.041,0.364,0.095,0.507,0.214c0.173,0.143,0.259,0.333,0.259,0.552
		c0,0.25-0.109,0.478-0.312,0.632c-0.201,0.152-0.474,0.201-0.723,0.201c-0.568,0-0.939-0.25-1.126-0.789L138.447,34.672
		L138.447,34.672z"/>
	<polygon fill-rule="evenodd" clip-rule="evenodd" fill="#FFFFFF" points="143.093,35.49 142.744,35.49 142.744,33.018 
		141.955,33.018 141.955,32.715 143.882,32.715 143.882,33.018 143.093,33.018 143.093,35.49 	"/>
	<polygon fill-rule="evenodd" clip-rule="evenodd" fill="#FFFFFF" points="146.675,34.321 146.675,35.49 146.326,35.49 
		146.326,34.321 145.399,32.715 145.805,32.715 146.541,33.992 147.286,32.715 147.602,32.715 146.675,34.321 	"/>
	<polygon fill-rule="evenodd" clip-rule="evenodd" fill="#FFFFFF" points="151.049,35.49 149.41,35.49 149.41,32.715 
		149.758,32.715 149.758,35.182 151.049,35.182 151.049,35.49 	"/>
	<polygon fill-rule="evenodd" clip-rule="evenodd" fill="#FFFFFF" points="154.672,35.49 152.875,35.49 152.875,32.715 
		154.632,32.715 154.632,33.013 153.223,33.013 153.223,33.896 154.341,33.896 154.341,34.176 153.223,34.176 153.223,35.191 
		154.672,35.191 154.672,35.49 	"/>
	<path fill-rule="evenodd" clip-rule="evenodd" fill="#FFFFFF" d="M20.996,27.593c-0.136-0.137-0.204-0.661-0.24-1.869
		c-0.162-4.38-0.816-8.795-6.736-10.445c-0.001,0-0.615-0.166-0.615-0.166c-0.059-0.014-0.071-0.023-0.101-0.037
		c0.096-0.042,0.264-0.1,0.518-0.183l0.655-0.215c3.894-1.232,5.953-3.549,5.953-6.7c0-2.342-1.204-4.534-3.219-5.859
		c-1.533-1.043-3.875-1.55-7.158-1.55L7.267,0.652c-0.964,0.08-1.865,0.123-2.608,0.123L1.463,0.719L0,0.689l0.003,0.163v0.936
		l0.153,0.006c1.727,0.077,2.35,0.122,2.55,0.323c0.159,0.161,0.159,1.563,0.159,2.4v20.716c0,0.838,0,2.24-0.159,2.401
		c-0.2,0.201-0.823,0.245-2.55,0.323l-0.153,0.006v1.099l1.46-0.029l3.196-0.055l3.216,0.052l1.729,0.032l-0.003-0.162v-0.935
		l-0.894-0.052c-1.362-0.076-1.926-0.109-2.096-0.279c-0.158-0.16-0.158-1.563-0.158-2.401c0,0,0-9.25,0-9.559
		c0.282,0,2.496,0,2.496,0c3.104,0,4.38,0.397,5.939,1.852c1.435,1.294,2.114,2.487,2.156,7.833c0,0.001,0.042,3.576,0.042,3.576
		h0.158c1.738,0,2.696,0,6.291,0.083l0.164,0.004v-1.101l-0.154-0.007C21.94,27.851,21.153,27.751,20.996,27.593L20.996,27.593z
		 M16.841,8.349c0,3.057-1.947,6.142-6.297,6.142c-1.113,0-2.597-0.1-4.09-0.274c0-0.28,0-9.739,0-9.739
		c0-1.719,0-2.182,0.099-2.349c0.064-0.154,0.439-0.375,2.356-0.375c2.639,0,4.271,0.408,5.458,1.365
		C16.054,4.479,16.841,6.14,16.841,8.349L16.841,8.349z"/>
	<path fill-rule="evenodd" clip-rule="evenodd" fill="#FFFFFF" d="M29.956,11.194c-5.033,0-8.416,3.673-8.416,9.14
		s3.382,9.139,8.416,9.139c5.034,0,8.416-3.672,8.416-9.139S34.989,11.194,29.956,11.194L29.956,11.194z M29.956,28.412
		c-3.196,0-5.029-2.944-5.029-8.078s1.833-8.078,5.029-8.078s5.03,2.944,5.03,8.078S33.152,28.412,29.956,28.412L29.956,28.412z"/>
	<path fill-rule="evenodd" clip-rule="evenodd" fill="#FFFFFF" d="M47.239,11.441c-2.259,0-3.755,0.736-4.703,1.25
		c0-0.492,0-5.949,0-5.949c0-3.095,0.08-4.926,0.286-6.538L42.848,0l-0.206,0.026l-5.902,0.76v1.001h1.835
		c0.534,0,0.632,0.045,0.745,0.158c0.02,0.036,0.158,0.394,0.158,2.983L39.46,29.363l0.608,0.164l0.583-0.674
		c0.249-0.293,0.499-0.586,0.648-0.712c1.241,0.564,2.936,1.331,5.205,1.331c5.208,0,8.988-3.844,8.988-9.139
		C55.492,15.099,52.098,11.441,47.239,11.441L47.239,11.441z M42.537,13.962c1.101-0.682,2.314-1.047,3.517-1.047
		c3.563,0,6.052,3.135,6.052,7.625c0,5.407-3.264,7.872-6.297,7.872c-1.178,0-2.277-0.394-3.272-1.161
		C42.537,27.085,42.537,14.147,42.537,13.962L42.537,13.962z"/>
	<path fill-rule="evenodd" clip-rule="evenodd" fill="#FFFFFF" d="M99.041,27.592c-0.145-0.138-0.215-0.661-0.252-1.868
		c-0.171-4.382-0.858-8.797-7.07-10.445c-0.002,0-0.646-0.166-0.646-0.166c-0.062-0.014-0.072-0.023-0.104-0.037
		c0.104-0.043,0.28-0.101,0.546-0.183l0.683-0.215c4.087-1.23,6.248-3.548,6.248-6.7c0-2.344-1.264-4.535-3.38-5.862
		c-1.608-1.041-4.065-1.547-7.51-1.547l-2.924,0.083c-1.013,0.08-1.959,0.123-2.74,0.123l-3.354-0.056l-1.529-0.03l0.004,0.163
		v0.936l0.153,0.006c1.854,0.08,2.471,0.122,2.685,0.326c0.166,0.16,0.166,1.56,0.166,2.397v20.716c0,0.838,0,2.238-0.166,2.397
		c-0.213,0.204-0.868,0.249-2.685,0.327l-0.153,0.006v1.099l1.525-0.029l3.354-0.055l3.377,0.052l1.808,0.032l-0.003-0.162v-0.935
		l-0.931-0.052c-1.434-0.076-2.027-0.109-2.209-0.283c-0.166-0.159-0.166-1.56-0.166-2.397c0,0,0-9.25,0-9.559
		c0.284,0,2.629,0,2.629,0c3.264,0,4.606,0.398,6.246,1.854c1.505,1.293,2.22,2.488,2.264,7.832c0,0.001,0.045,3.576,0.045,3.576
		h0.158c1.825,0,2.83,0,6.604,0.083l0.164,0.004v-1.101l-0.154-0.007C100.034,27.851,99.206,27.749,99.041,27.592L99.041,27.592z
		 M94.692,8.349c0,3.057-2.047,6.142-6.62,6.142c-1.17,0-2.732-0.102-4.304-0.274c0-0.281,0-9.739,0-9.739
		c0-1.718,0-2.178,0.104-2.346c0.067-0.156,0.462-0.378,2.482-0.378c2.775,0,4.491,0.41,5.738,1.368
		C93.867,4.482,94.692,6.144,94.692,8.349L94.692,8.349z"/>
	<path fill-rule="evenodd" clip-rule="evenodd" fill="#FFFFFF" d="M126.635,11.441c-1.547,0-3.085,0.466-4.699,1.424
		c-0.003,0.001-0.192,0.119-0.192,0.119c-0.747,0.462-0.931,0.574-1.036,0.593c-0.001-0.019-0.001-0.038-0.001-0.038l0.08-1.348
		l0.054-0.758l-0.18,0.008l-5.666,0.252l-0.351,1.056h2.224c0.535,0,0.633,0.047,0.744,0.16c0.111,0.112,0.159,0.804,0.159,2.317
		v19.322c0,1.804-0.039,2.124-0.17,2.288c-0.093,0.124-0.596,0.273-2.493,0.312l-0.158,0.003v1.022l1.566-0.035l2.762-0.053
		l2.222,0.039l2.888,0.047l-0.004-0.163l0.002-0.852l-0.15-0.009c-2.152-0.133-3.135-0.192-3.22-0.364
		c-0.147-0.192-0.187-0.374-0.187-1.245c0,0,0-6.896,0-7.319c1.251,0.471,2.528,0.717,3.804,0.717c5.217,0,9.151-4.034,9.151-9.386
		C133.783,14.776,130.844,11.441,126.635,11.441L126.635,11.441z M130.521,20.251c0,4.418-2.512,7.625-5.97,7.625
		c-0.922,0-2.621-0.2-3.723-1.51c0-0.126,0-11.496,0-11.669c1.281-0.842,2.484-1.535,4.13-1.535
		C128.181,13.162,130.521,16.144,130.521,20.251L130.521,20.251z"/>
	<path fill-rule="evenodd" clip-rule="evenodd" fill="#FFFFFF" d="M143.306,11.194c-5.034,0-8.416,3.673-8.416,9.14
		s3.382,9.139,8.416,9.139c5.033,0,8.416-3.672,8.416-9.139S148.339,11.194,143.306,11.194L143.306,11.194z M143.306,28.412
		c-3.196,0-5.03-2.944-5.03-8.078s1.834-8.078,5.03-8.078c3.197,0,5.03,2.944,5.03,8.078S146.503,28.412,143.306,28.412
		L143.306,28.412z"/>
	<path fill-rule="evenodd" clip-rule="evenodd" fill="#FFFFFF" d="M64.325,11.441c-2.259,0-3.755,0.736-4.702,1.25
		c0-0.492,0-5.949,0-5.949c0-3.096,0.08-4.929,0.284-6.538L59.933,0l-0.205,0.026l-5.902,0.76v1.001h1.835
		c0.534,0,0.633,0.045,0.745,0.158c0.02,0.036,0.158,0.394,0.158,2.983l-0.018,24.434l0.609,0.164l0.577-0.667
		c0.251-0.297,0.504-0.593,0.652-0.719c1.241,0.564,2.937,1.331,5.206,1.331c5.208,0,8.988-3.844,8.988-9.139
		C72.577,15.099,69.184,11.441,64.325,11.441L64.325,11.441z M59.623,13.962c1.101-0.682,2.315-1.047,3.518-1.047
		c3.563,0,6.052,3.135,6.052,7.625c0,5.407-3.265,7.872-6.298,7.872c-1.178,0-2.277-0.394-3.271-1.161
		C59.623,27.085,59.623,14.147,59.623,13.962L59.623,13.962z"/>
	<path fill-rule="evenodd" clip-rule="evenodd" fill="#FFFFFF" d="M115.963,25.59l0.095-0.111l-0.709-0.718l-0.114,0.121
		c-1.657,1.749-3.158,2.833-5.523,2.833c-4.799,0-6.501-3.907-6.501-7.253c0-0.537,0.003-1.038,0.057-1.362
		c0.267,0.001,9.305,0.081,9.305,0.081l3.746,0.008l-0.022-0.18c-0.44-3.632-3.283-7.561-7.682-7.687
		c-5.503,0-8.79,4.856-8.79,9.551c0,5.139,3.462,8.727,8.417,8.727C111.816,29.6,114.414,27.419,115.963,25.59L115.963,25.59z
		 M108.525,12.384c1.086,0.034,2.069,0.502,2.835,1.356c0.916,1.021,1.455,2.508,1.455,3.97c0,0.102-0.007,0.203-0.013,0.305
		c-0.291,0-9.071,0.021-9.438,0.022C103.873,14.6,105.879,12.384,108.525,12.384L108.525,12.384z"/>
	<path fill-rule="evenodd" clip-rule="evenodd" fill="#FFFFFF" d="M160.462,11.194c-1.341,0-2.911,0.571-4.442,4.649
		c0.024-0.581,0.196-4.41,0.196-4.41l-5.271,0.261l-0.349,1.055h1.855c0.534,0,0.633,0.047,0.745,0.16
		c0.111,0.112,0.158,0.804,0.158,2.317V25.4c0,1.802-0.039,2.122-0.17,2.29c-0.075,0.1-0.452,0.269-2.168,0.31l-0.157,0.004v1.02
		l1.277-0.03l2.767-0.057l2.552,0.046l2.229,0.041l-0.002-0.164v-0.848l-0.148-0.011c-1.481-0.108-2.873-0.234-3.032-0.435
		c-0.089-0.091-0.089-0.419-0.089-1.136v-7.785c0-2.216,1.563-5.154,2.741-5.154c0.387,0,0.646,0.224,1.235,0.818
		c0.685,0.69,0.812,0.789,1.258,0.789c0.572,0,1.918-1.008,1.918-1.56C163.564,13.143,162.521,11.194,160.462,11.194L160.462,11.194
		z"/>
	<path fill-rule="evenodd" clip-rule="evenodd" fill="#FFFFFF" d="M174.525,26.41l-0.19,0.076c-1.115,0.45-2.213,0.854-3.372,0.854
		c-2.223,0-2.293-0.882-2.293-5.563v-4.282c0-1.19,0.08-3.364,0.156-4.785c0.278-0.008,4.91-0.122,4.91-0.122l0.388-1.224
		c0,0-5.122,0-5.443,0c0.021-0.312,0.266-4.116,0.266-4.116l0.05-0.791c0-0.3-0.188-0.406-0.363-0.406
		c-0.203,0-0.286,0.097-0.414,0.271l-4.456,6.014c-0.005,0.008-0.097,0.116-0.097,0.116l-0.097,0.185
		c0,0.244,0.211,0.244,0.363,0.244l0.392-0.016l0.753-0.026c0.172,0,0.383,0.024,0.42,0.136c0.114,0.236,0.114,0.452,0.114,3.083
		v9.717c0,2.665,0.858,3.702,3.063,3.702c2.539,0,5.061-1.6,5.888-2.125l0.087-0.057L174.525,26.41L174.525,26.41z"/>
	<path fill-rule="evenodd" clip-rule="evenodd" fill="#FFFFFF" d="M175.154,27.845c0.323,0,0.594,0.261,0.594,0.596
		c0,0.325-0.265,0.594-0.594,0.594c-0.327,0-0.592-0.269-0.592-0.594C174.562,28.105,174.829,27.845,175.154,27.845L175.154,27.845z
		 M175.154,28.928c0.269,0,0.487-0.219,0.487-0.487c0-0.273-0.219-0.489-0.487-0.489c-0.264,0-0.486,0.216-0.486,0.489
		C174.668,28.709,174.887,28.928,175.154,28.928L175.154,28.928z M175.04,28.758h-0.136V28.12h0.297c0.038,0,0.242,0,0.242,0.19
		c0,0.122-0.087,0.156-0.117,0.17l0.117,0.277H175.3l-0.105-0.254h-0.154V28.758L175.04,28.758z M175.04,28.396h0.141
		c0.045,0,0.12-0.012,0.12-0.089c0-0.036-0.025-0.083-0.109-0.083h-0.151V28.396L175.04,28.396z"/>
</g>
</svg>
