<?xml version="1.0" encoding="utf-8"?>
<!-- Generator: Adobe Illustrator 16.0.4, SVG Export Plug-In . SVG Version: 6.00 Build 0)  -->
<!DOCTYPE svg PUBLIC "-//W3C//DTD SVG 1.1//EN" "http://www.w3.org/Graphics/SVG/1.1/DTD/svg11.dtd">
<svg version="1.1" id="Layer_1" xmlns="http://www.w3.org/2000/svg" xmlns:xlink="http://www.w3.org/1999/xlink" x="0px" y="0px"
	 width="423px" height="116px" viewBox="0 0 423 116" enable-background="new 0 0 423 116" xml:space="preserve">
<path fill="#FFFFFF" d="M410.25,36.803l-0.577,2.592l-5.326,1.439c-1.183,0.321-2.312,1.436-2.881,2.16L377.277,73.81l-9.074,30.24
	c-0.476,1.579,0.149,2.484,1.152,2.735l6.336,1.583l-0.863,2.593h-31.68l0.862-2.593l5.905-1.438
	c1.597-0.391,2.468-1.304,3.023-3.168l9.071-30.528l-7.92-29.807c-0.379-1.427-0.761-2.61-2.302-3.024l-3.745-1.008l0.575-2.592
	h27.072l-0.576,2.592l-4.608,1.296c-1.613,0.453-1.99,1.282-1.584,2.88l6.481,25.341l19.295-25.629
	c0.363-0.483,0.578-1.008,0.578-1.441c0-0.572-0.481-0.984-1.154-1.151l-5.184-1.296l0.721-2.592H410.25"/>
<path fill="#FFFFFF" d="M347.179,53.649h-3.599l-3.168-9.647c-0.582-1.774-1.442-2.303-3.168-2.303h-7.92l-18.576,62.351
	c-0.471,1.576-0.012,2.477,1.439,2.88l5.184,1.438l-0.864,2.593h-30.959l0.864-2.593l5.47-1.294
	c2.428-0.575,2.967-1.322,3.603-3.458l18.432-61.917h-9.217c-1.431,0-2.556,0.92-3.455,2.159l-6.481,8.927h-3.599l5.759-17.854
	h2.303c0.574,1.288,1.451,1.872,2.736,1.872h38.737c2.16,0,2.881-0.576,3.744-1.872h2.448L347.179,53.649"/>
<path fill="#FFFFFF" d="M289.726,52.785h-3.601l-3.458-9.214c-0.523-1.403-1.587-1.872-2.878-1.872h-14.688l-8.351,28.223h13.968
	c1.438,0,2.306-0.709,3.312-2.16l3.887-5.617h3.601l-6.625,22.465h-3.6l0.146-7.919c0.024-1.433-0.863-1.872-2.306-1.872h-13.824
	l-9.215,31.104h20.304c2.721,0,3.76-0.521,5.186-2.306l8.062-10.079h3.89l-8.209,19.439h-2.59c-0.722-1.439-1.744-2.016-4.322-2.016
	H221.9l0.864-2.593l5.615-1.438c1.448-0.372,2.33-1.304,2.881-3.168l17.856-60.335c0.343-1.163-0.043-2.19-0.864-2.448l-5.039-1.584
	l0.719-2.592h40.177c1.358,0,2.446-0.576,3.168-1.872h2.305L289.726,52.785"/>
<path fill="#FFFFFF" d="M409.529,17.363c-33.701,7.682-75.129,11.664-110.304,11.664c-87.837,0-149.468-11.953-175.532-18.144
	L13.824,114.849L4.896,116l32.255-98.206c-5.138,2.714-22.46,7.2-30.383,7.777c-2.524,0.182-2.576-1.208-1.44-1.872
	c7.631-4.464,11.263-7.998,14.688-16.705c15.845,3.854,27.792,0.864,42.191-4.463L32.975,85.186l77.759-84.382
	c49.534,10.567,102.288,14.976,142.848,14.976c37.828,0,71.078-5.959,88.125-12.96c24.033,14.314,51.546,13.091,67.248,12.095
	C411.238,14.77,411.525,16.908,409.529,17.363"/>
<path fill="#FFFFFF" d="M240.333,36.803l-0.72,2.592l-6.049,1.727c-1.166,0.333-1.734,1.023-2.16,2.449l-17.856,59.902
	c-0.531,1.789-0.933,2.933,1.297,3.602l4.319,1.294l-0.864,2.593h-28.654l0.863-2.593l4.177-1.294
	c2.328-0.725,3.045-1.577,3.599-3.458l17.713-60.189c0.369-1.253-0.106-2.148-1.008-2.448l-4.753-1.584l0.72-2.592H240.333"/>
<path fill="#FFFFFF" d="M197.564,55.089c0,11.263-8.931,21.026-23.471,20.448c-2.517-0.098-6.062-0.578-8.351-1.297
	c0,13.766,4.226,27.793,12.383,27.793c5.04,0,6.528-4.22,7.199-7.775c0.112-0.579,0.583-1.004,1.297-0.289
	c1.934,1.935,3.6,4.623,3.6,8.641c0,8.451-5.337,12.239-13.392,12.239c-20.411,0-21.333-29.35-17.998-47.376
	c0.183-0.991,0.578-1.148,1.296-0.721c2.599,1.562,5.598,2.449,9.791,2.449c6.601,0,12.814-5.24,12.814-14.687
	c0-9.444-7.844-15.264-19.438-15.264l-19.151,64.512c-0.189,0.633-0.289,1.155-0.289,1.583c0,0.855,0.343,1.333,1.296,1.585
	l5.473,1.438l-0.865,2.593h-28.655l0.864-2.593l4.319-1.294c1.326-0.399,1.966-1.185,2.593-3.312l19.008-64.512
	c-8.24,1.743-12.241,4.782-12.241,9.505c0,2.719,0.615,4.003,1.441,5.182c0.314,0.452,0.439,0.958,0.432,1.44
	c-0.02,1.064-0.927,2.016-3.601,2.016c-4.293,0-8.207-2.447-8.207-8.494c0-3.577,2.204-15.696,33.695-15.696
	C186.067,33.203,197.564,41.78,197.564,55.089"/>
<path fill="#FFFFFF" d="M120.383,108.368l-0.864,2.593H92.447l0.864-2.593l4.752-1.294c1.349-0.369,2.016-1.314,2.16-2.88
	l1.152-12.53H70.99l-9.934,12.098c-0.644,0.781-1.009,1.386-1.009,1.871c0,0.633,0.344,1.045,1.152,1.297l4.608,1.438l-0.864,2.593
	H42.191l1.008-2.593l4.752-1.151c1.667-0.403,3.333-1.667,4.609-3.167l61.487-72.287l6.336-1.152l-5.904,73.726
	c-0.126,1.573,0.093,2.579,1.872,3.024L120.383,108.368 M105.119,49.907L75.6,86.337h26.207L105.119,49.907z"/>
</svg>
