<?xml version="1.0" encoding="utf-8"?>
<!-- Generator: Adobe Illustrator 16.0.4, SVG Export Plug-In . SVG Version: 6.00 Build 0)  -->
<!DOCTYPE svg PUBLIC "-//W3C//DTD SVG 1.1//EN" "http://www.w3.org/Graphics/SVG/1.1/DTD/svg11.dtd">
<svg version="1.1" id="Layer_1" xmlns="http://www.w3.org/2000/svg" xmlns:xlink="http://www.w3.org/1999/xlink" x="0px" y="0px"
	 width="125.122px" height="33.879px" viewBox="0 0 125.122 33.879" enable-background="new 0 0 125.122 33.879"
	 xml:space="preserve">
<g>
	<polyline fill="#FFFFFF" points="0,0.338 5.856,0.338 5.856,1.002 4.497,1.002 7.655,17.757 7.693,17.757 9.503,7.466 8.284,1.002 
		7.414,1.002 7.42,0.338 12.454,0.338 12.454,1.002 11.383,1.002 14.471,17.372 14.513,17.372 17.875,1.002 16.526,1.002 
		16.526,0.338 20.009,0.338 20.009,1.002 18.558,1.002 13.69,26.001 13.037,26.001 9.909,9.563 9.871,9.563 6.867,26.001 
		6.113,26.001 1.417,1.002 0,1.002 0,0.338 	"/>
	<polyline fill="#FFFFFF" points="18.318,11.413 21.853,11.413 21.853,25.338 23.105,25.338 23.105,25.999 18.318,25.999 
		18.318,25.338 19.571,25.338 19.571,12.058 18.318,12.058 18.318,11.413 	"/>
	<path fill="#FFFFFF" d="M23.684,25.338h1.234v-13.28l-1.241,0.001v-0.646h3.485v3.4h0.038c0.206-0.85,0.897-3.706,3.123-3.706
		c1.608,0,2.599,1.904,2.599,4.828v9.403h1.253v0.661H29.48v-0.661h1.159V14.779c0-1.87-0.467-2.562-1.178-2.562
		c-1.344,0-2.262,3.083-2.262,6.896v6.224h1.178v0.661h-4.693V25.338"/>
	<path fill="#FFFFFF" d="M36.507,17.465v1.53c0,3.229,0.149,6.423,2.375,6.423c1.982,0,2.492-2.135,2.548-2.917l0.482,0.39
		c-0.244,1.666-1.141,3.375-3.31,3.375c-2.6,0-4.619-2.748-4.619-7.61c0-3.91,1.926-7.556,4.357-7.556
		c1.72,0,3.684,1.742,3.684,6.366H36.507L36.507,17.465z M39.499,16.741v-2.029c0-0.952-0.001-3.042-1.217-3.042
		c-1.683,0-1.719,3.008-1.774,5.072H39.499"/>
	<path fill="#FFFFFF" d="M70.923,17.465v1.53c0,3.229,0.15,6.423,2.375,6.423c1.982,0,2.492-2.135,2.549-2.917l0.48,0.39
		c-0.242,1.666-1.141,3.375-3.311,3.375c-2.598,0-4.617-2.748-4.617-7.61c0-3.91,1.926-7.556,4.355-7.556
		c1.721,0,3.686,1.742,3.686,6.366H70.923L70.923,17.465z M73.915,16.741v-2.029c0-0.952,0-3.043-1.215-3.043
		c-1.684,0-1.721,3.009-1.777,5.072H73.915"/>
	<path fill="#FFFFFF" d="M58.627,12.058h-1.234v-0.635h3.478v2.516h0.037c0.393-1.972,1.122-2.84,2.207-2.84
		c2.88,0,4.075,4.438,4.075,7.6c0,4.046-1.645,7.564-4.075,7.564c-1.141,0-1.833-1.105-2.169-2.703h-0.038v9.653h1.272v0.665h-4.787
		v-0.665h1.234V12.058L58.627,12.058z M63.115,25.318c1.384,0,1.651-2.166,1.651-6.586c0-5.474-0.529-6.907-1.802-6.907
		c-1.851,0-2.057,3.882-2.057,6.907C60.908,21.589,61.021,25.318,63.115,25.318"/>
	<path fill="#FFFFFF" d="M82.038,11.093c1.742,0.006,3.178,1.306,3.178,3.132c0,1.412-0.447,2.04-1.215,2.04
		c-0.58,0-1.16-0.272-1.16-1.496c0-0.374,0.281-1.364,0.281-1.738c0-0.918-0.486-1.362-1.141-1.362c-1.775,0-2.02,2.914-2.02,6.722
		c0,3.502,0.168,7.027,2.338,7.027c2.037,0,2.529-2.107,2.605-2.957l0.361,0.37c-0.225,1.563-0.873,3.433-3.211,3.433
		c-0.971,0-4.617-0.732-4.617-7.668C77.438,15.263,79.063,11.083,82.038,11.093"/>
	<path fill="#FFFFFF" d="M86.823,7.975c1.025-0.213,1.881-0.799,2.025-0.963c0.178,0,0.162,0,0.256,0l-0.006,4.402h1.994v0.645
		l-1.988-0.001v11.128c0,1.326,0.129,2.232,0.99,2.232c0.936,0,1.246-1.516,1.453-2.909l0.379,0.302
		c-0.318,3.094-1.551,3.453-2.486,3.453c-2.617,0-2.617-2.365-2.617-3.996v-10.21h-1.254V11.41h1.254V7.975"/>
	<path fill="#FFFFFF" d="M102.563,7.975c1.025-0.213,1.881-0.799,2.025-0.963c0.18,0,0.164,0,0.256,0l-0.006,4.402h1.994v0.645
		l-1.988-0.001v11.128c0,1.326,0.131,2.232,0.992,2.232c0.934,0,1.246-1.516,1.451-2.909l0.381,0.302
		c-0.318,3.094-1.553,3.453-2.488,3.453c-2.617,0-2.617-2.365-2.617-3.996v-10.21h-1.254V11.41h1.254V7.975"/>
	<path fill="#FFFFFF" d="M116.974,18.484c0,4.217-1.982,7.786-4.562,7.786s-4.562-3.569-4.562-7.786
		c0-4.182,1.982-7.401,4.562-7.401S116.974,14.303,116.974,18.484L116.974,18.484z M114.45,18.484c0-3.638-0.145-6.825-2.088-6.825
		c-1.945,0-1.988,3.188-1.988,6.825c0,3.672,0.092,7.211,2.037,7.211S114.45,22.156,114.45,18.484"/>
	<path fill="#FFFFFF" d="M117.257,11.419h3.459v2.856h0.037c0.449-1.734,1.18-3.162,2.414-3.162c1.027,0,1.955,0.788,1.955,2.59
		c0,1.36-0.441,2.226-1.229,2.226c-0.561,0-1.141-0.39-1.141-1.58c0-0.272,0.129-1.264,0.129-1.4c0-0.27-0.109-0.666-0.539-0.666
		c-0.523,0-1.59,1.952-1.59,4.842v8.205h1.479v0.675h-4.975V25.33h1.215V12.058h-1.215V11.419"/>
	<path fill="#FFFFFF" d="M21.862,6.313c0,0.902-0.659,1.634-1.471,1.634c-0.812,0-1.471-0.732-1.471-1.634
		c0-0.903,0.659-1.635,1.471-1.635C21.204,4.678,21.862,5.41,21.862,6.313"/>
	<path fill="#FFFFFF" d="M46.833,18.198h0.492c0.117,1.132,0.739,7.47,4.591,7.47c2.51,0,3.153-2.034,3.153-3.966
		c0-6.475-8.396-5.389-8.396-14.114C46.673,3.46,48.819,0,51.562,0c1.712,0,2.529,1.086,3.151,1.086
		c0.351,0,0.428-0.177,0.545-0.743h0.511v6.72h-0.453c-0.603-3.254-1.245-6.468-3.773-6.468c-2.062,0-3.21,2.537-3.21,4.623
		c0,6.197,8.826,5.895,8.826,13.709c0,4.633-2.229,7.386-5.399,7.386c-1.595,0-3.288-1.077-3.812-1.077
		c-0.351,0-0.467,0.178-0.604,0.773h-0.511V18.198"/>
	<path fill="#FFFFFF" d="M101.321,24.877c-0.205,0.409-0.393,0.564-0.711,0.564c-0.545,0-0.619-0.5-0.619-1.353v-8.453
		c0-3.839-1.725-4.519-3.609-4.523c-0.717,0.002-3.012,0.24-3.012,3.099c0,1.411,0.449,2.04,1.215,2.04
		c0.58,0,1.16-0.272,1.16-1.496c0-0.374-0.281-1.365-0.281-1.738c0-0.88,0.449-1.323,1.062-1.358c0.918,0,1.178,0.875,1.178,2.068
		v2.079c0,1.705-0.469,1.913-2.457,3.103c-0.793,0.475-2.475,1.432-2.475,4.09c0,2.144,1.5,3.291,2.699,3.291
		c1.332,0,2.133-0.612,2.307-2.204h0.037c0.15,1.401,0.732,2.204,1.988,2.204c0.58,0,1.33-0.033,1.688-1.022L101.321,24.877
		 M97.704,21.775c0,2.481-0.35,3.447-1.312,3.447c-1.588,0-1.652-2.036-1.652-2.747c0-2.494,2.594-4.228,2.865-4.497l0.1-0.001
		V21.775"/>
</g>
</svg>
