<?xml version="1.0" encoding="utf-8"?>
<!-- Generator: Adobe Illustrator 16.0.4, SVG Export Plug-In . SVG Version: 6.00 Build 0)  -->
<!DOCTYPE svg PUBLIC "-//W3C//DTD SVG 1.1//EN" "http://www.w3.org/Graphics/SVG/1.1/DTD/svg11.dtd">
<svg version="1.1" id="Layer_1" xmlns="http://www.w3.org/2000/svg" xmlns:xlink="http://www.w3.org/1999/xlink" x="0px" y="0px"
	 width="360px" height="216px" viewBox="0 0 360 216" enable-background="new 0 0 360 216" xml:space="preserve">
<g>
	<path d="M278.566,230.652l-1.709-6.736h0.919l0.8,3.408c0.199,0.84,0.379,1.68,0.5,2.328h0.02c0.109-0.669,0.32-1.469,0.55-2.338
		l0.899-3.398h0.91l0.818,3.418c0.19,0.8,0.37,1.6,0.471,2.309h0.02c0.141-0.739,0.33-1.488,0.539-2.328l0.891-3.398h0.889
		l-1.908,6.736h-0.91l-0.85-3.508c-0.209-0.859-0.35-1.52-0.439-2.199h-0.02c-0.12,0.67-0.27,1.33-0.52,2.199l-0.96,3.508H278.566z"
		/>
	<path d="M288.865,229.493c0,0.419,0.02,0.829,0.079,1.159h-0.8l-0.069-0.609h-0.03c-0.27,0.379-0.789,0.719-1.479,0.719
		c-0.98,0-1.48-0.689-1.48-1.389c0-1.17,1.04-1.809,2.909-1.799v-0.1c0-0.4-0.11-1.12-1.1-1.12c-0.45,0-0.919,0.14-1.259,0.36
		l-0.2-0.58c0.399-0.26,0.979-0.43,1.589-0.43c1.479,0,1.84,1.01,1.84,1.979V229.493z M288.016,228.184
		c-0.96-0.02-2.049,0.15-2.049,1.09c0,0.569,0.379,0.84,0.829,0.84c0.63,0,1.029-0.4,1.169-0.811c0.03-0.09,0.051-0.189,0.051-0.279
		V228.184z"/>
	<path d="M290.557,223.557h0.879v7.096h-0.879V223.557z"/>
	<path d="M293.146,223.557h0.879v7.096h-0.879V223.557z"/>
	<path d="M297.536,229.593c0.39,0.24,0.96,0.44,1.56,0.44c0.889,0,1.408-0.471,1.408-1.15c0-0.629-0.359-0.988-1.269-1.339
		c-1.1-0.39-1.779-0.96-1.779-1.909c0-1.049,0.87-1.828,2.179-1.828c0.689,0,1.189,0.159,1.489,0.329l-0.239,0.71
		c-0.221-0.12-0.67-0.32-1.279-0.32c-0.92,0-1.27,0.55-1.27,1.01c0,0.63,0.41,0.939,1.339,1.299c1.14,0.44,1.72,0.99,1.72,1.979
		c0,1.039-0.77,1.948-2.359,1.948c-0.649,0-1.359-0.199-1.719-0.439L297.536,229.593z"/>
	<path d="M303.646,224.656v1.158h1.259v0.67h-1.259v2.609c0,0.6,0.17,0.939,0.659,0.939c0.24,0,0.381-0.021,0.51-0.061l0.041,0.66
		c-0.17,0.069-0.44,0.129-0.78,0.129c-0.409,0-0.739-0.139-0.949-0.379c-0.25-0.26-0.34-0.689-0.34-1.26v-2.639h-0.75v-0.67h0.75
		v-0.889L303.646,224.656z"/>
	<path d="M306.066,227.324c0-0.57-0.01-1.06-0.041-1.51h0.77l0.031,0.95h0.039c0.221-0.649,0.75-1.06,1.34-1.06
		c0.1,0,0.17,0.01,0.25,0.029v0.83c-0.09-0.02-0.18-0.029-0.301-0.029c-0.619,0-1.059,0.469-1.179,1.129
		c-0.021,0.119-0.04,0.26-0.04,0.41v2.578h-0.869V227.324z"/>
	<path d="M309.936,228.394c0.02,1.189,0.779,1.679,1.659,1.679c0.63,0,1.009-0.109,1.339-0.25l0.15,0.631
		c-0.311,0.139-0.84,0.309-1.609,0.309c-1.488,0-2.379-0.988-2.379-2.448c0-1.459,0.859-2.608,2.27-2.608
		c1.578,0,1.998,1.389,1.998,2.279c0,0.18-0.02,0.319-0.029,0.409H309.936z M312.514,227.764c0.011-0.56-0.229-1.429-1.219-1.429
		c-0.89,0-1.279,0.819-1.35,1.429H312.514z"/>
	<path d="M315.125,228.394c0.021,1.189,0.78,1.679,1.66,1.679c0.629,0,1.009-0.109,1.339-0.25l0.149,0.631
		c-0.31,0.139-0.84,0.309-1.609,0.309c-1.488,0-2.378-0.988-2.378-2.448c0-1.459,0.859-2.608,2.269-2.608
		c1.579,0,1.999,1.389,1.999,2.279c0,0.18-0.021,0.319-0.03,0.409H315.125z M317.704,227.764c0.011-0.56-0.229-1.429-1.22-1.429
		c-0.889,0-1.279,0.819-1.349,1.429H317.704z"/>
	<path d="M320.836,224.656v1.158h1.259v0.67h-1.259v2.609c0,0.6,0.17,0.939,0.659,0.939c0.239,0,0.38-0.021,0.51-0.061l0.04,0.66
		c-0.17,0.069-0.439,0.129-0.779,0.129c-0.41,0-0.74-0.139-0.949-0.379c-0.25-0.26-0.34-0.689-0.34-1.26v-2.639h-0.75v-0.67h0.75
		v-0.889L320.836,224.656z"/>
	<path d="M326.615,223.916h0.869v4.508c0,1.789-0.879,2.338-2.039,2.338c-0.32,0-0.709-0.069-0.93-0.159l0.131-0.71
		c0.18,0.07,0.439,0.13,0.729,0.13c0.78,0,1.24-0.35,1.24-1.669V223.916z"/>
	<path d="M333.233,228.193c0,1.789-1.239,2.568-2.409,2.568c-1.309,0-2.318-0.959-2.318-2.488c0-1.619,1.06-2.568,2.398-2.568
		C332.293,225.705,333.233,226.715,333.233,228.193z M329.396,228.244c0,1.059,0.609,1.858,1.469,1.858c0.84,0,1.47-0.79,1.47-1.879
		c0-0.819-0.41-1.858-1.449-1.858S329.396,227.324,329.396,228.244z"/>
	<path d="M338.403,229.333c0,0.5,0.011,0.939,0.04,1.319h-0.779l-0.051-0.789h-0.02c-0.23,0.389-0.74,0.898-1.6,0.898
		c-0.76,0-1.668-0.42-1.668-2.118v-2.829h0.879v2.68c0,0.919,0.279,1.539,1.08,1.539c0.589,0,0.999-0.41,1.158-0.801
		c0.051-0.129,0.08-0.289,0.08-0.449v-2.969h0.88V229.333z"/>
	<path d="M340.056,227.324c0-0.57-0.01-1.06-0.04-1.51h0.77l0.03,0.95h0.04c0.22-0.649,0.75-1.06,1.34-1.06
		c0.1,0,0.169,0.01,0.249,0.029v0.83c-0.09-0.02-0.18-0.029-0.3-0.029c-0.619,0-1.06,0.469-1.18,1.129
		c-0.02,0.119-0.039,0.26-0.039,0.41v2.578h-0.87V227.324z"/>
	<path d="M343.615,227.125c0-0.5-0.01-0.91-0.039-1.311h0.779l0.05,0.801h0.021c0.239-0.461,0.799-0.91,1.599-0.91
		c0.67,0,1.709,0.4,1.709,2.059v2.889h-0.88v-2.789c0-0.779-0.289-1.429-1.119-1.429c-0.58,0-1.029,0.409-1.18,0.899
		c-0.039,0.11-0.06,0.26-0.06,0.41v2.908h-0.88V227.125z"/>
	<path d="M352.744,229.493c0,0.419,0.02,0.829,0.079,1.159h-0.8l-0.069-0.609h-0.03c-0.27,0.379-0.789,0.719-1.479,0.719
		c-0.98,0-1.48-0.689-1.48-1.389c0-1.17,1.04-1.809,2.909-1.799v-0.1c0-0.4-0.11-1.12-1.1-1.12c-0.45,0-0.919,0.14-1.259,0.36
		l-0.2-0.58c0.399-0.26,0.979-0.43,1.589-0.43c1.479,0,1.84,1.01,1.84,1.979V229.493z M351.895,228.184
		c-0.96-0.02-2.049,0.15-2.049,1.09c0,0.569,0.379,0.84,0.829,0.84c0.63,0,1.029-0.4,1.169-0.811c0.03-0.09,0.051-0.189,0.051-0.279
		V228.184z"/>
	<path d="M354.436,223.557h0.879v7.096h-0.879V223.557z"/>
</g>
<g>
	<path fill="#FFFFFF" d="M21.374,25.922l-8.965-1.403h-0.713v-6.902h48.333v6.902h-1.343c-5.541-0.684-8.299,1.403-8.299,6.902
		v3.461l20.713,106.384l12.437-69.773L76.64,36.271c-1.39-8.976-4.827-12.437-11.058-11.753h-0.713v-6.902h46.968v6.902h-0.667
		c-7.597-0.684-11.058,2.086-11.058,8.305l20.725,107.746h1.367l18.668-102.227v-4.145c0-7.593-3.472-10.363-11.059-9.679h-2.069
		v-6.902h40.712v6.902h-2.045l-9.677,1.403l-6.208,13.792l-32.461,154.024h-9.655L88.378,92.89L67.64,193.738H57.283L26.2,36.271
		L21.374,25.922z"/>
	<path fill="#FFFFFF" d="M240.302,15.547v60.772h-6.207V74.25c0-34.529-9.654-51.794-28.99-51.794
		c-13.127-0.684-20.022,6.218-19.356,21.415c0,7.61,2.08,15.196,6.919,22.098l20.714,18.656l25.554,25.559
		c6.908,10.344,10.357,23.471,10.357,37.973c0,29.019-13.806,43.52-40.75,43.52c-10.357,0-20.714-3.461-31.069-11.06l-4.162,10.388
		h-4.84v-61.487h5.542v2.07c0,18.639,4.125,32.46,11.735,42.128c6.229,6.901,13.116,10.363,20.724,10.363
		c15.898,0,24.175-8.973,24.175-27.641c0-17.253-10.369-33.84-31.082-49.714c-21.427-15.891-32.461-33.157-32.461-53.186
		c-0.69-12.444,3.473-22.11,11.035-29.012c6.231-7.599,14.529-11.034,24.875-11.034c10.368,0,19.357,3.435,28.324,11.034
		l4.827-8.978H240.302z"/>
	<path fill="#FFFFFF" d="M288.673,150.23c0,10.352-4.829,15.88-15.196,16.574l4.815,13.128c3.448,4.138,8.287,6.207,13.828,6.207
		l12.426-5.528l3.461-19.321V34.881c-0.703-6.896-3.461-10.35-9.657-10.35h-4.85v-6.915h53.175v6.915h-4.828
		c-6.207,0-9.678,3.455-8.965,10.35v121.562c-0.713,24.876-13.841,37.295-39.382,38.003c-8.989-0.708-16.601-3.449-21.427-9.686
		c-7.586-7.599-11.034-16.581-11.034-28.317l5.528-13.811l8.979-4.833C283.131,137.8,287.971,141.944,288.673,150.23"/>
</g>
</svg>
